<mxfile host="app.diagrams.net" modified="2022-02-07T10:41:52.252Z" agent="5.0 (Windows NT 6.1; Win64; x64) AppleWebKit/537.36 (KHTML, like Gecko) Chrome/97.0.4692.99 Safari/537.36" etag="cdZl6PC1KuY9hzk-vu7-" version="16.5.3" type="github">
  <diagram id="C5RBs43oDa-KdzZeNtuy" name="Page-1">
    <mxGraphModel dx="1102" dy="882" grid="1" gridSize="10" guides="1" tooltips="1" connect="1" arrows="1" fold="1" page="1" pageScale="1" pageWidth="827" pageHeight="1169" math="0" shadow="0">
      <root>
        <mxCell id="WIyWlLk6GJQsqaUBKTNV-0" />
        <mxCell id="WIyWlLk6GJQsqaUBKTNV-1" parent="WIyWlLk6GJQsqaUBKTNV-0" />
        <mxCell id="zkfFHV4jXpPFQw0GAbJ--0" value="Posts&#xa;" style="swimlane;fontStyle=1;align=center;verticalAlign=top;childLayout=stackLayout;horizontal=1;startSize=26;horizontalStack=0;resizeParent=1;resizeLast=0;collapsible=1;marginBottom=0;rounded=0;shadow=0;strokeWidth=1;fillColor=#e1d5e7;strokeColor=#9673a6;" parent="WIyWlLk6GJQsqaUBKTNV-1" vertex="1">
          <mxGeometry y="400" width="210" height="230" as="geometry">
            <mxRectangle x="230" y="140" width="160" height="26" as="alternateBounds" />
          </mxGeometry>
        </mxCell>
        <mxCell id="zkfFHV4jXpPFQw0GAbJ--1" value="+ id: number" style="text;align=left;verticalAlign=top;spacingLeft=4;spacingRight=4;overflow=hidden;rotatable=0;points=[[0,0.5],[1,0.5]];portConstraint=eastwest;" parent="zkfFHV4jXpPFQw0GAbJ--0" vertex="1">
          <mxGeometry y="26" width="210" height="26" as="geometry" />
        </mxCell>
        <mxCell id="zkfFHV4jXpPFQw0GAbJ--2" value="+ title: string" style="text;align=left;verticalAlign=top;spacingLeft=4;spacingRight=4;overflow=hidden;rotatable=0;points=[[0,0.5],[1,0.5]];portConstraint=eastwest;rounded=0;shadow=0;html=0;" parent="zkfFHV4jXpPFQw0GAbJ--0" vertex="1">
          <mxGeometry y="52" width="210" height="26" as="geometry" />
        </mxCell>
        <mxCell id="zkfFHV4jXpPFQw0GAbJ--3" value="+ description: string" style="text;align=left;verticalAlign=top;spacingLeft=4;spacingRight=4;overflow=hidden;rotatable=0;points=[[0,0.5],[1,0.5]];portConstraint=eastwest;rounded=0;shadow=0;html=0;" parent="zkfFHV4jXpPFQw0GAbJ--0" vertex="1">
          <mxGeometry y="78" width="210" height="26" as="geometry" />
        </mxCell>
        <mxCell id="TGGtBXSz6WMK7u7tevUp-3" value="+ photo: object" style="text;align=left;verticalAlign=top;spacingLeft=4;spacingRight=4;overflow=hidden;rotatable=0;points=[[0,0.5],[1,0.5]];portConstraint=eastwest;rounded=0;shadow=0;html=0;" vertex="1" parent="zkfFHV4jXpPFQw0GAbJ--0">
          <mxGeometry y="104" width="210" height="26" as="geometry" />
        </mxCell>
        <mxCell id="VkD3TOjIiIWvsF4e_gnP-7" value="&amp;nbsp;createPost (title, desc, photo)" style="text;html=1;align=left;verticalAlign=middle;resizable=0;points=[];autosize=1;strokeColor=none;fillColor=none;imageAspect=1;pointerEvents=1;imageHeight=24;" parent="zkfFHV4jXpPFQw0GAbJ--0" vertex="1">
          <mxGeometry y="130" width="210" height="20" as="geometry" />
        </mxCell>
        <mxCell id="TGGtBXSz6WMK7u7tevUp-5" value="" style="endArrow=none;html=1;rounded=0;exitX=0.004;exitY=-0.014;exitDx=0;exitDy=0;exitPerimeter=0;entryX=1.004;entryY=-0.028;entryDx=0;entryDy=0;entryPerimeter=0;" edge="1" parent="zkfFHV4jXpPFQw0GAbJ--0" source="VkD3TOjIiIWvsF4e_gnP-7" target="VkD3TOjIiIWvsF4e_gnP-7">
          <mxGeometry width="50" height="50" relative="1" as="geometry">
            <mxPoint x="60" y="180" as="sourcePoint" />
            <mxPoint x="110" y="130" as="targetPoint" />
          </mxGeometry>
        </mxCell>
        <mxCell id="RooowFxhHjXUuwGwddAt-11" value="&amp;nbsp;getPost (id)" style="text;html=1;align=left;verticalAlign=middle;resizable=0;points=[];autosize=1;strokeColor=none;fillColor=none;fontSize=12;fontFamily=Helvetica;fontColor=default;" parent="zkfFHV4jXpPFQw0GAbJ--0" vertex="1">
          <mxGeometry y="150" width="210" height="20" as="geometry" />
        </mxCell>
        <mxCell id="RooowFxhHjXUuwGwddAt-10" value="&amp;nbsp;updatePost (title,desc,photo)" style="text;html=1;align=left;verticalAlign=middle;resizable=0;points=[];autosize=1;strokeColor=none;fillColor=none;fontSize=12;fontFamily=Helvetica;fontColor=default;" parent="zkfFHV4jXpPFQw0GAbJ--0" vertex="1">
          <mxGeometry y="170" width="210" height="20" as="geometry" />
        </mxCell>
        <mxCell id="RooowFxhHjXUuwGwddAt-12" value="&amp;nbsp;deletePost (id)" style="text;html=1;align=left;verticalAlign=middle;resizable=0;points=[];autosize=1;strokeColor=none;fillColor=none;fontSize=12;fontFamily=Helvetica;fontColor=default;" parent="zkfFHV4jXpPFQw0GAbJ--0" vertex="1">
          <mxGeometry y="190" width="210" height="20" as="geometry" />
        </mxCell>
        <mxCell id="zkfFHV4jXpPFQw0GAbJ--17" value="User" style="swimlane;fontStyle=1;align=center;verticalAlign=top;childLayout=stackLayout;horizontal=1;startSize=26;horizontalStack=0;resizeParent=1;resizeLast=0;collapsible=1;marginBottom=0;rounded=0;shadow=0;strokeWidth=1;fillColor=#dae8fc;strokeColor=#6c8ebf;" parent="WIyWlLk6GJQsqaUBKTNV-1" vertex="1">
          <mxGeometry x="279" y="400" width="201" height="240" as="geometry">
            <mxRectangle x="458" y="410" width="160" height="26" as="alternateBounds" />
          </mxGeometry>
        </mxCell>
        <mxCell id="zkfFHV4jXpPFQw0GAbJ--18" value="+ firstName: string" style="text;align=left;verticalAlign=top;spacingLeft=4;spacingRight=4;overflow=hidden;rotatable=0;points=[[0,0.5],[1,0.5]];portConstraint=eastwest;" parent="zkfFHV4jXpPFQw0GAbJ--17" vertex="1">
          <mxGeometry y="26" width="201" height="26" as="geometry" />
        </mxCell>
        <mxCell id="zkfFHV4jXpPFQw0GAbJ--19" value="+ secondName: string" style="text;align=left;verticalAlign=top;spacingLeft=4;spacingRight=4;overflow=hidden;rotatable=0;points=[[0,0.5],[1,0.5]];portConstraint=eastwest;rounded=0;shadow=0;html=0;" parent="zkfFHV4jXpPFQw0GAbJ--17" vertex="1">
          <mxGeometry y="52" width="201" height="26" as="geometry" />
        </mxCell>
        <mxCell id="zkfFHV4jXpPFQw0GAbJ--20" value="+ email: string" style="text;align=left;verticalAlign=top;spacingLeft=4;spacingRight=4;overflow=hidden;rotatable=0;points=[[0,0.5],[1,0.5]];portConstraint=eastwest;rounded=0;shadow=0;html=0;" parent="zkfFHV4jXpPFQw0GAbJ--17" vertex="1">
          <mxGeometry y="78" width="201" height="26" as="geometry" />
        </mxCell>
        <mxCell id="VkD3TOjIiIWvsF4e_gnP-5" value="&amp;nbsp;-&amp;nbsp; password: string" style="text;html=1;align=left;verticalAlign=middle;resizable=0;points=[];autosize=1;strokeColor=none;fillColor=none;" parent="zkfFHV4jXpPFQw0GAbJ--17" vertex="1">
          <mxGeometry y="104" width="201" height="20" as="geometry" />
        </mxCell>
        <mxCell id="RooowFxhHjXUuwGwddAt-49" value="&amp;nbsp;- subscribes:&amp;nbsp;&lt;code class=&quot;ts keyword&quot; style=&quot;line-height: 19.5px ; font-size: 13px ; background: none ; font-family: &amp;#34;consolas&amp;#34; , &amp;#34;courier new&amp;#34; , monospace &amp;#34;important&amp;#34; ; border-radius: 0px ; border: 0px ; float: none ; height: auto ; margin: 0px ; outline: 0px ; overflow: visible ; padding: 0px ; position: static ; vertical-align: baseline ; width: auto ; box-sizing: content-box ; min-height: auto&quot;&gt;string&lt;/code&gt;&lt;code class=&quot;ts plain&quot; style=&quot;line-height: 19.5px ; font-size: 13px ; background: none ; font-family: &amp;#34;consolas&amp;#34; , &amp;#34;courier new&amp;#34; , monospace &amp;#34;important&amp;#34; ; border-radius: 0px ; border: 0px ; float: none ; height: auto ; margin: 0px ; outline: 0px ; overflow: visible ; padding: 0px ; position: static ; vertical-align: baseline ; width: auto ; box-sizing: content-box ; min-height: auto&quot;&gt;[]&lt;/code&gt;" style="text;html=1;align=left;verticalAlign=middle;resizable=0;points=[];autosize=1;strokeColor=none;fillColor=none;fontSize=12;fontFamily=Helvetica;fontColor=default;" parent="zkfFHV4jXpPFQw0GAbJ--17" vertex="1">
          <mxGeometry y="124" width="201" height="30" as="geometry" />
        </mxCell>
        <mxCell id="TGGtBXSz6WMK7u7tevUp-1" value="+ posts: object [ ]" style="text;html=1;align=left;verticalAlign=middle;resizable=0;points=[];autosize=1;strokeColor=none;fillColor=none;" vertex="1" parent="zkfFHV4jXpPFQw0GAbJ--17">
          <mxGeometry y="154" width="201" height="20" as="geometry" />
        </mxCell>
        <mxCell id="RooowFxhHjXUuwGwddAt-14" value="&amp;nbsp;getProfile ()" style="text;html=1;align=left;verticalAlign=middle;resizable=0;points=[];autosize=1;strokeColor=none;fillColor=none;fontSize=12;fontFamily=Helvetica;fontColor=default;" parent="zkfFHV4jXpPFQw0GAbJ--17" vertex="1">
          <mxGeometry y="174" width="201" height="20" as="geometry" />
        </mxCell>
        <mxCell id="TGGtBXSz6WMK7u7tevUp-2" value="" style="endArrow=none;html=1;rounded=0;exitX=1;exitY=0.9;exitDx=0;exitDy=0;exitPerimeter=0;" edge="1" parent="zkfFHV4jXpPFQw0GAbJ--17" source="TGGtBXSz6WMK7u7tevUp-1">
          <mxGeometry width="50" height="50" relative="1" as="geometry">
            <mxPoint x="111" y="410" as="sourcePoint" />
            <mxPoint x="1" y="172" as="targetPoint" />
          </mxGeometry>
        </mxCell>
        <mxCell id="RooowFxhHjXUuwGwddAt-15" value="&amp;nbsp;updateProfile(firstName,&amp;nbsp;" style="text;html=1;align=left;verticalAlign=middle;resizable=0;points=[];autosize=1;strokeColor=none;fillColor=none;fontSize=12;fontFamily=Helvetica;fontColor=default;" parent="zkfFHV4jXpPFQw0GAbJ--17" vertex="1">
          <mxGeometry y="194" width="201" height="20" as="geometry" />
        </mxCell>
        <mxCell id="RooowFxhHjXUuwGwddAt-51" value="&lt;span&gt;&amp;nbsp; secondName, password)&lt;/span&gt;" style="text;html=1;align=left;verticalAlign=middle;resizable=0;points=[];autosize=1;strokeColor=none;fillColor=none;fontSize=12;fontFamily=Helvetica;fontColor=default;" parent="zkfFHV4jXpPFQw0GAbJ--17" vertex="1">
          <mxGeometry y="214" width="201" height="20" as="geometry" />
        </mxCell>
        <mxCell id="zkfFHV4jXpPFQw0GAbJ--26" value="" style="endArrow=open;shadow=0;strokeWidth=1;rounded=0;endFill=1;edgeStyle=elbowEdgeStyle;elbow=vertical;" parent="WIyWlLk6GJQsqaUBKTNV-1" source="zkfFHV4jXpPFQw0GAbJ--0" target="zkfFHV4jXpPFQw0GAbJ--17" edge="1">
          <mxGeometry x="0.5" y="41" relative="1" as="geometry">
            <mxPoint x="260" y="482" as="sourcePoint" />
            <mxPoint x="420" y="482" as="targetPoint" />
            <mxPoint x="-40" y="32" as="offset" />
          </mxGeometry>
        </mxCell>
        <mxCell id="zkfFHV4jXpPFQw0GAbJ--27" value="0..*" style="resizable=0;align=left;verticalAlign=bottom;labelBackgroundColor=none;fontSize=12;" parent="zkfFHV4jXpPFQw0GAbJ--26" connectable="0" vertex="1">
          <mxGeometry x="-1" relative="1" as="geometry">
            <mxPoint y="4" as="offset" />
          </mxGeometry>
        </mxCell>
        <mxCell id="zkfFHV4jXpPFQw0GAbJ--28" value="1" style="resizable=0;align=right;verticalAlign=bottom;labelBackgroundColor=none;fontSize=12;" parent="zkfFHV4jXpPFQw0GAbJ--26" connectable="0" vertex="1">
          <mxGeometry x="1" relative="1" as="geometry">
            <mxPoint x="-7" y="4" as="offset" />
          </mxGeometry>
        </mxCell>
        <mxCell id="zkfFHV4jXpPFQw0GAbJ--29" value="CRUD" style="text;html=1;resizable=0;points=[];;align=center;verticalAlign=middle;labelBackgroundColor=none;rounded=0;shadow=0;strokeWidth=1;fontSize=12;" parent="zkfFHV4jXpPFQw0GAbJ--26" vertex="1" connectable="0">
          <mxGeometry x="0.5" y="49" relative="1" as="geometry">
            <mxPoint x="-22" y="61" as="offset" />
          </mxGeometry>
        </mxCell>
        <mxCell id="VkD3TOjIiIWvsF4e_gnP-6" value="&lt;span style=&quot;color: rgba(0 , 0 , 0 , 0) ; font-family: monospace ; font-size: 0px&quot;&gt;%3CmxGraphModel%3E%3Croot%3E%3CmxCell%20id%3D%220%22%2F%3E%3CmxCell%20id%3D%221%22%20parent%3D%220%22%2F%3E%3CmxCell%20id%3D%222%22%20value%3D%22createPost(title%2Cdesc%2Cphoto)%22%20style%3D%22text%3Bhtml%3D1%3Balign%3Dcenter%3BverticalAlign%3Dmiddle%3Bresizable%3D0%3Bpoints%3D%5B%5D%3Bautosize%3D1%3BstrokeColor%3Dnone%3BfillColor%3Dnone%3B%22%20vertex%3D%221%22%20parent%3D%221%22%3E%3CmxGeometry%20x%3D%22458%22%20y%3D%22514%22%20width%3D%22162%22%20height%3D%2220%22%20as%3D%22geometry%22%2F%3E%3C%2FmxCell%3E%3C%2Froot%3E%3C%2FmxGraphModel%3E&lt;/span&gt;&lt;span style=&quot;color: rgba(0 , 0 , 0 , 0) ; font-family: monospace ; font-size: 0px&quot;&gt;%3CmxGraphModel%3E%3Croot%3E%3CmxCell%20id%3D%220%22%2F%3E%3CmxCell%20id%3D%221%22%20parent%3D%220%22%2F%3E%3CmxCell%20id%3D%222%22%20value%3D%22createPost(title%2Cdesc%2Cphoto)%22%20style%3D%22text%3Bhtml%3D1%3Balign%3Dcenter%3BverticalAlign%3Dmiddle%3Bresizable%3D0%3Bpoints%3D%5B%5D%3Bautosize%3D1%3BstrokeColor%3Dnone%3BfillColor%3Dnone%3B%22%20vertex%3D%221%22%20parent%3D%221%22%3E%3CmxGeometry%20x%3D%22458%22%20y%3D%22514%22%20width%3D%22162%22%20height%3D%2220%22%20as%3D%22geometry%22%2F%3E%3C%2FmxCell%3E%3C%2Froot%3E%3C%2FmxGraphModel%3E&lt;/span&gt;" style="text;html=1;align=center;verticalAlign=middle;resizable=0;points=[];autosize=1;strokeColor=none;fillColor=none;" parent="WIyWlLk6GJQsqaUBKTNV-1" vertex="1">
          <mxGeometry x="409" y="540" width="20" height="20" as="geometry" />
        </mxCell>
        <mxCell id="VkD3TOjIiIWvsF4e_gnP-11" value="Registration" style="swimlane;fontStyle=1;align=center;verticalAlign=top;childLayout=stackLayout;horizontal=1;startSize=26;horizontalStack=0;resizeParent=1;resizeLast=0;collapsible=1;marginBottom=0;rounded=0;shadow=0;strokeWidth=1;fillColor=#fff2cc;strokeColor=#d6b656;" parent="WIyWlLk6GJQsqaUBKTNV-1" vertex="1">
          <mxGeometry x="591" y="160" width="220" height="200" as="geometry">
            <mxRectangle x="458" y="410" width="160" height="26" as="alternateBounds" />
          </mxGeometry>
        </mxCell>
        <mxCell id="VkD3TOjIiIWvsF4e_gnP-12" value="+ firstName: string" style="text;align=left;verticalAlign=top;spacingLeft=4;spacingRight=4;overflow=hidden;rotatable=0;points=[[0,0.5],[1,0.5]];portConstraint=eastwest;" parent="VkD3TOjIiIWvsF4e_gnP-11" vertex="1">
          <mxGeometry y="26" width="220" height="26" as="geometry" />
        </mxCell>
        <mxCell id="VkD3TOjIiIWvsF4e_gnP-14" value="+ secondName: string" style="text;align=left;verticalAlign=top;spacingLeft=4;spacingRight=4;overflow=hidden;rotatable=0;points=[[0,0.5],[1,0.5]];portConstraint=eastwest;rounded=0;shadow=0;html=0;" parent="VkD3TOjIiIWvsF4e_gnP-11" vertex="1">
          <mxGeometry y="52" width="220" height="26" as="geometry" />
        </mxCell>
        <mxCell id="VkD3TOjIiIWvsF4e_gnP-13" value="+ email: string" style="text;align=left;verticalAlign=top;spacingLeft=4;spacingRight=4;overflow=hidden;rotatable=0;points=[[0,0.5],[1,0.5]];portConstraint=eastwest;rounded=0;shadow=0;html=0;" parent="VkD3TOjIiIWvsF4e_gnP-11" vertex="1">
          <mxGeometry y="78" width="220" height="26" as="geometry" />
        </mxCell>
        <mxCell id="VkD3TOjIiIWvsF4e_gnP-18" value="&amp;nbsp;-&amp;nbsp; password: string" style="text;html=1;align=left;verticalAlign=middle;resizable=0;points=[];autosize=1;strokeColor=none;fillColor=none;" parent="VkD3TOjIiIWvsF4e_gnP-11" vertex="1">
          <mxGeometry y="104" width="220" height="20" as="geometry" />
        </mxCell>
        <mxCell id="VkD3TOjIiIWvsF4e_gnP-15" value="" style="line;html=1;strokeWidth=1;align=left;verticalAlign=middle;spacingTop=-1;spacingLeft=3;spacingRight=3;rotatable=0;labelPosition=right;points=[];portConstraint=eastwest;" parent="VkD3TOjIiIWvsF4e_gnP-11" vertex="1">
          <mxGeometry y="124" width="220" height="16" as="geometry" />
        </mxCell>
        <mxCell id="VkD3TOjIiIWvsF4e_gnP-22" value="&lt;font color=&quot;#000000&quot;&gt;&amp;nbsp;registration (firstName, secondName,&amp;nbsp;&lt;/font&gt;" style="text;html=1;align=left;verticalAlign=middle;resizable=0;points=[];autosize=1;strokeColor=none;fillColor=none;fontColor=#FFFFFF;" parent="VkD3TOjIiIWvsF4e_gnP-11" vertex="1">
          <mxGeometry y="140" width="220" height="20" as="geometry" />
        </mxCell>
        <mxCell id="RooowFxhHjXUuwGwddAt-53" value="&amp;nbsp; &amp;nbsp; &amp;nbsp; &amp;nbsp; &amp;nbsp; &amp;nbsp; &amp;nbsp;email, password )" style="text;html=1;align=left;verticalAlign=middle;resizable=0;points=[];autosize=1;strokeColor=none;fillColor=none;fontSize=12;fontFamily=Helvetica;fontColor=default;" parent="VkD3TOjIiIWvsF4e_gnP-11" vertex="1">
          <mxGeometry y="160" width="220" height="20" as="geometry" />
        </mxCell>
        <mxCell id="VkD3TOjIiIWvsF4e_gnP-17" value="1" style="resizable=0;align=right;verticalAlign=bottom;labelBackgroundColor=none;fontSize=12;rotation=25;fontColor=#FFFFFF;" parent="WIyWlLk6GJQsqaUBKTNV-1" connectable="0" vertex="1">
          <mxGeometry x="460" y="233" as="geometry">
            <mxPoint x="-47.33324531495834" y="-101.50647214810479" as="offset" />
          </mxGeometry>
        </mxCell>
        <mxCell id="VkD3TOjIiIWvsF4e_gnP-19" value="&lt;span style=&quot;color: rgba(0 , 0 , 0 , 0) ; font-family: monospace ; font-size: 0px&quot;&gt;%3CmxGraphModel%3E%3Croot%3E%3CmxCell%20id%3D%220%22%2F%3E%3CmxCell%20id%3D%221%22%20parent%3D%220%22%2F%3E%3CmxCell%20id%3D%222%22%20value%3D%22createPost(title%2Cdesc%2Cphoto)%22%20style%3D%22text%3Bhtml%3D1%3Balign%3Dcenter%3BverticalAlign%3Dmiddle%3Bresizable%3D0%3Bpoints%3D%5B%5D%3Bautosize%3D1%3BstrokeColor%3Dnone%3BfillColor%3Dnone%3B%22%20vertex%3D%221%22%20parent%3D%221%22%3E%3CmxGeometry%20x%3D%22458%22%20y%3D%22514%22%20width%3D%22162%22%20height%3D%2220%22%20as%3D%22geometry%22%2F%3E%3C%2FmxCell%3E%3C%2Froot%3E%3C%2FmxGraphModel%3E&lt;/span&gt;&lt;span style=&quot;color: rgba(0 , 0 , 0 , 0) ; font-family: monospace ; font-size: 0px&quot;&gt;%3CmxGraphModel%3E%3Croot%3E%3CmxCell%20id%3D%220%22%2F%3E%3CmxCell%20id%3D%221%22%20parent%3D%220%22%2F%3E%3CmxCell%20id%3D%222%22%20value%3D%22createPost(title%2Cdesc%2Cphoto)%22%20style%3D%22text%3Bhtml%3D1%3Balign%3Dcenter%3BverticalAlign%3Dmiddle%3Bresizable%3D0%3Bpoints%3D%5B%5D%3Bautosize%3D1%3BstrokeColor%3Dnone%3BfillColor%3Dnone%3B%22%20vertex%3D%221%22%20parent%3D%221%22%3E%3CmxGeometry%20x%3D%22458%22%20y%3D%22514%22%20width%3D%22162%22%20height%3D%2220%22%20as%3D%22geometry%22%2F%3E%3C%2FmxCell%3E%3C%2Froot%3E%3C%2FmxGraphModel%3E&lt;/span&gt;" style="text;html=1;align=center;verticalAlign=middle;resizable=0;points=[];autosize=1;strokeColor=none;fillColor=none;" parent="WIyWlLk6GJQsqaUBKTNV-1" vertex="1">
          <mxGeometry x="499" y="300" width="20" height="20" as="geometry" />
        </mxCell>
        <mxCell id="VkD3TOjIiIWvsF4e_gnP-31" value="1" style="resizable=0;align=right;verticalAlign=bottom;labelBackgroundColor=none;fontSize=12;rotation=25;fontColor=#FFFFFF;" parent="WIyWlLk6GJQsqaUBKTNV-1" connectable="0" vertex="1">
          <mxGeometry x="737" y="473" as="geometry">
            <mxPoint x="-47.33324531495834" y="-101.50647214810479" as="offset" />
          </mxGeometry>
        </mxCell>
        <mxCell id="RooowFxhHjXUuwGwddAt-1" value="DataBaseUsers" style="swimlane;fontStyle=1;align=center;verticalAlign=top;childLayout=stackLayout;horizontal=1;startSize=26;horizontalStack=0;resizeParent=1;resizeLast=0;collapsible=1;marginBottom=0;rounded=0;shadow=0;strokeWidth=1;fillColor=#d5e8d4;strokeColor=#82b366;" parent="WIyWlLk6GJQsqaUBKTNV-1" vertex="1">
          <mxGeometry x="600" y="400" width="202" height="190" as="geometry">
            <mxRectangle x="458" y="410" width="160" height="26" as="alternateBounds" />
          </mxGeometry>
        </mxCell>
        <mxCell id="RooowFxhHjXUuwGwddAt-2" value="firstName: string" style="text;align=left;verticalAlign=top;spacingLeft=4;spacingRight=4;overflow=hidden;rotatable=0;points=[[0,0.5],[1,0.5]];portConstraint=eastwest;" parent="RooowFxhHjXUuwGwddAt-1" vertex="1">
          <mxGeometry y="26" width="202" height="26" as="geometry" />
        </mxCell>
        <mxCell id="RooowFxhHjXUuwGwddAt-3" value="secondName: string" style="text;align=left;verticalAlign=top;spacingLeft=4;spacingRight=4;overflow=hidden;rotatable=0;points=[[0,0.5],[1,0.5]];portConstraint=eastwest;rounded=0;shadow=0;html=0;" parent="RooowFxhHjXUuwGwddAt-1" vertex="1">
          <mxGeometry y="52" width="202" height="26" as="geometry" />
        </mxCell>
        <mxCell id="RooowFxhHjXUuwGwddAt-4" value="email: string" style="text;align=left;verticalAlign=top;spacingLeft=4;spacingRight=4;overflow=hidden;rotatable=0;points=[[0,0.5],[1,0.5]];portConstraint=eastwest;rounded=0;shadow=0;html=0;" parent="RooowFxhHjXUuwGwddAt-1" vertex="1">
          <mxGeometry y="78" width="202" height="26" as="geometry" />
        </mxCell>
        <mxCell id="RooowFxhHjXUuwGwddAt-5" value="&amp;nbsp;password: string" style="text;html=1;align=left;verticalAlign=middle;resizable=0;points=[];autosize=1;strokeColor=none;fillColor=none;" parent="RooowFxhHjXUuwGwddAt-1" vertex="1">
          <mxGeometry y="104" width="202" height="20" as="geometry" />
        </mxCell>
        <mxCell id="RooowFxhHjXUuwGwddAt-8" value="&amp;nbsp;posts: object" style="text;html=1;align=left;verticalAlign=middle;resizable=0;points=[];autosize=1;strokeColor=none;fillColor=none;" parent="RooowFxhHjXUuwGwddAt-1" vertex="1">
          <mxGeometry y="124" width="202" height="20" as="geometry" />
        </mxCell>
        <mxCell id="RooowFxhHjXUuwGwddAt-31" value="&amp;nbsp;subscribes:&amp;nbsp;&lt;code class=&quot;ts keyword&quot; style=&quot;line-height: 19.5px ; font-size: 13px ; font-family: &amp;#34;consolas&amp;#34; , &amp;#34;courier new&amp;#34; , monospace &amp;#34;important&amp;#34; ; border-radius: 0px ; background: none ; border: 0px ; float: none ; height: auto ; margin: 0px ; outline: 0px ; overflow: visible ; padding: 0px ; position: static ; vertical-align: baseline ; width: auto ; box-sizing: content-box ; min-height: auto&quot;&gt;string&lt;/code&gt;&lt;code class=&quot;ts plain&quot; style=&quot;line-height: 19.5px ; font-size: 13px ; font-family: &amp;#34;consolas&amp;#34; , &amp;#34;courier new&amp;#34; , monospace &amp;#34;important&amp;#34; ; border-radius: 0px ; background: none ; border: 0px ; float: none ; height: auto ; margin: 0px ; outline: 0px ; overflow: visible ; padding: 0px ; position: static ; vertical-align: baseline ; width: auto ; box-sizing: content-box ; min-height: auto&quot;&gt;[]&lt;/code&gt;" style="text;html=1;align=left;verticalAlign=middle;resizable=0;points=[];autosize=1;strokeColor=none;fillColor=none;fontSize=12;fontFamily=Helvetica;fontColor=default;" parent="RooowFxhHjXUuwGwddAt-1" vertex="1">
          <mxGeometry y="144" width="202" height="30" as="geometry" />
        </mxCell>
        <mxCell id="VkD3TOjIiIWvsF4e_gnP-24" value="Authorization" style="swimlane;fontStyle=1;align=center;verticalAlign=top;childLayout=stackLayout;horizontal=1;startSize=26;horizontalStack=0;resizeParent=1;resizeLast=0;collapsible=1;marginBottom=0;rounded=0;shadow=0;strokeWidth=1;fillColor=#fff2cc;strokeColor=#d6b656;" parent="WIyWlLk6GJQsqaUBKTNV-1" vertex="1">
          <mxGeometry x="278" y="160" width="202" height="120" as="geometry">
            <mxRectangle x="458" y="410" width="160" height="26" as="alternateBounds" />
          </mxGeometry>
        </mxCell>
        <mxCell id="VkD3TOjIiIWvsF4e_gnP-26" value=" + email: string" style="text;align=left;verticalAlign=top;spacingLeft=4;spacingRight=4;overflow=hidden;rotatable=0;points=[[0,0.5],[1,0.5]];portConstraint=eastwest;rounded=0;shadow=0;html=0;" parent="VkD3TOjIiIWvsF4e_gnP-24" vertex="1">
          <mxGeometry y="26" width="202" height="26" as="geometry" />
        </mxCell>
        <mxCell id="VkD3TOjIiIWvsF4e_gnP-28" value="&amp;nbsp; - password: string" style="text;html=1;align=left;verticalAlign=middle;resizable=0;points=[];autosize=1;strokeColor=none;fillColor=none;" parent="VkD3TOjIiIWvsF4e_gnP-24" vertex="1">
          <mxGeometry y="52" width="202" height="20" as="geometry" />
        </mxCell>
        <mxCell id="VkD3TOjIiIWvsF4e_gnP-29" value="" style="line;html=1;strokeWidth=1;align=left;verticalAlign=middle;spacingTop=-1;spacingLeft=3;spacingRight=3;rotatable=0;labelPosition=right;points=[];portConstraint=eastwest;" parent="VkD3TOjIiIWvsF4e_gnP-24" vertex="1">
          <mxGeometry y="72" width="202" height="18" as="geometry" />
        </mxCell>
        <mxCell id="VkD3TOjIiIWvsF4e_gnP-30" value="&lt;font color=&quot;#000000&quot;&gt;&amp;nbsp;authorization (email, password)&lt;/font&gt;" style="text;html=1;align=left;verticalAlign=middle;resizable=0;points=[];autosize=1;strokeColor=none;fillColor=none;fontColor=#FFFFFF;" parent="VkD3TOjIiIWvsF4e_gnP-24" vertex="1">
          <mxGeometry y="90" width="202" height="20" as="geometry" />
        </mxCell>
        <mxCell id="RooowFxhHjXUuwGwddAt-20" value="" style="endArrow=classic;html=1;rounded=0;fontFamily=Helvetica;fontSize=12;fontColor=default;entryX=0.5;entryY=1;entryDx=0;entryDy=0;" parent="WIyWlLk6GJQsqaUBKTNV-1" source="zkfFHV4jXpPFQw0GAbJ--17" target="VkD3TOjIiIWvsF4e_gnP-24" edge="1">
          <mxGeometry width="50" height="50" relative="1" as="geometry">
            <mxPoint x="360" y="430" as="sourcePoint" />
            <mxPoint x="410" y="380" as="targetPoint" />
          </mxGeometry>
        </mxCell>
        <mxCell id="RooowFxhHjXUuwGwddAt-21" value="EmailNotification" style="swimlane;fontStyle=1;align=center;verticalAlign=top;childLayout=stackLayout;horizontal=1;startSize=26;horizontalStack=0;resizeParent=1;resizeLast=0;collapsible=1;marginBottom=0;rounded=0;shadow=0;strokeWidth=1;fillColor=#e1d5e7;strokeColor=#9673a6;" parent="WIyWlLk6GJQsqaUBKTNV-1" vertex="1">
          <mxGeometry x="200" y="720" width="202" height="218" as="geometry">
            <mxRectangle x="458" y="410" width="160" height="26" as="alternateBounds" />
          </mxGeometry>
        </mxCell>
        <mxCell id="RooowFxhHjXUuwGwddAt-23" value="+ email: string" style="text;align=left;verticalAlign=top;spacingLeft=4;spacingRight=4;overflow=hidden;rotatable=0;points=[[0,0.5],[1,0.5]];portConstraint=eastwest;rounded=0;shadow=0;html=0;" parent="RooowFxhHjXUuwGwddAt-21" vertex="1">
          <mxGeometry y="26" width="202" height="26" as="geometry" />
        </mxCell>
        <mxCell id="RooowFxhHjXUuwGwddAt-25" value="&amp;nbsp;- subscribs:&amp;nbsp;&lt;code class=&quot;ts keyword&quot; style=&quot;line-height: 19.5px ; font-size: 13px ; background: none ; font-family: &amp;#34;consolas&amp;#34; , &amp;#34;courier new&amp;#34; , monospace &amp;#34;important&amp;#34; ; border-radius: 0px ; border: 0px ; float: none ; height: auto ; margin: 0px ; outline: 0px ; overflow: visible ; padding: 0px ; position: static ; vertical-align: baseline ; width: auto ; box-sizing: content-box ; min-height: auto&quot;&gt;string&lt;/code&gt;&lt;code class=&quot;ts plain&quot; style=&quot;line-height: 19.5px ; font-size: 13px ; background: none ; font-family: &amp;#34;consolas&amp;#34; , &amp;#34;courier new&amp;#34; , monospace &amp;#34;important&amp;#34; ; border-radius: 0px ; border: 0px ; float: none ; height: auto ; margin: 0px ; outline: 0px ; overflow: visible ; padding: 0px ; position: static ; vertical-align: baseline ; width: auto ; box-sizing: content-box ; min-height: auto&quot;&gt;[]&lt;/code&gt;" style="text;html=1;align=left;verticalAlign=middle;resizable=0;points=[];autosize=1;strokeColor=none;fillColor=none;" parent="RooowFxhHjXUuwGwddAt-21" vertex="1">
          <mxGeometry y="52" width="202" height="30" as="geometry" />
        </mxCell>
        <mxCell id="RooowFxhHjXUuwGwddAt-26" value="" style="line;html=1;strokeWidth=1;align=left;verticalAlign=middle;spacingTop=-1;spacingLeft=3;spacingRight=3;rotatable=0;labelPosition=right;points=[];portConstraint=eastwest;" parent="RooowFxhHjXUuwGwddAt-21" vertex="1">
          <mxGeometry y="82" width="202" height="16" as="geometry" />
        </mxCell>
        <mxCell id="RooowFxhHjXUuwGwddAt-27" value="&lt;font color=&quot;#000000&quot;&gt;&amp;nbsp;subscribe(user)&lt;/font&gt;" style="text;html=1;align=left;verticalAlign=middle;resizable=0;points=[];autosize=1;strokeColor=none;fillColor=none;fontColor=#FFFFFF;" parent="RooowFxhHjXUuwGwddAt-21" vertex="1">
          <mxGeometry y="98" width="202" height="20" as="geometry" />
        </mxCell>
        <mxCell id="RooowFxhHjXUuwGwddAt-28" value="&amp;nbsp;unsubscribeAll()" style="text;html=1;align=left;verticalAlign=middle;resizable=0;points=[];autosize=1;strokeColor=none;fillColor=none;fontSize=12;fontFamily=Helvetica;fontColor=default;" parent="RooowFxhHjXUuwGwddAt-21" vertex="1">
          <mxGeometry y="118" width="202" height="20" as="geometry" />
        </mxCell>
        <mxCell id="RooowFxhHjXUuwGwddAt-29" value="&amp;nbsp;unsubscribe (user)" style="text;html=1;align=left;verticalAlign=middle;resizable=0;points=[];autosize=1;strokeColor=none;fillColor=none;fontSize=12;fontFamily=Helvetica;fontColor=default;" parent="RooowFxhHjXUuwGwddAt-21" vertex="1">
          <mxGeometry y="138" width="202" height="20" as="geometry" />
        </mxCell>
        <mxCell id="RooowFxhHjXUuwGwddAt-30" value="&amp;nbsp;notificationUpdateProfile()" style="text;html=1;align=left;verticalAlign=middle;resizable=0;points=[];autosize=1;strokeColor=none;fillColor=none;fontSize=12;fontFamily=Helvetica;fontColor=default;" parent="RooowFxhHjXUuwGwddAt-21" vertex="1">
          <mxGeometry y="158" width="202" height="20" as="geometry" />
        </mxCell>
        <mxCell id="RooowFxhHjXUuwGwddAt-33" value="&amp;nbsp;configEmailSending(data)" style="text;html=1;align=left;verticalAlign=middle;resizable=0;points=[];autosize=1;strokeColor=none;fillColor=none;fontSize=12;fontFamily=Helvetica;fontColor=default;" parent="RooowFxhHjXUuwGwddAt-21" vertex="1">
          <mxGeometry y="178" width="202" height="20" as="geometry" />
        </mxCell>
        <mxCell id="RooowFxhHjXUuwGwddAt-47" value="&amp;nbsp;notificationLikePost()" style="text;html=1;align=left;verticalAlign=middle;resizable=0;points=[];autosize=1;strokeColor=none;fillColor=none;fontSize=12;fontFamily=Helvetica;fontColor=default;" parent="RooowFxhHjXUuwGwddAt-21" vertex="1">
          <mxGeometry y="198" width="202" height="20" as="geometry" />
        </mxCell>
        <mxCell id="RooowFxhHjXUuwGwddAt-32" value="" style="endArrow=none;html=1;rounded=0;fontFamily=Helvetica;fontSize=12;fontColor=default;entryX=0.5;entryY=1;entryDx=0;entryDy=0;exitX=0.5;exitY=0;exitDx=0;exitDy=0;" parent="WIyWlLk6GJQsqaUBKTNV-1" source="RooowFxhHjXUuwGwddAt-21" target="zkfFHV4jXpPFQw0GAbJ--17" edge="1">
          <mxGeometry width="50" height="50" relative="1" as="geometry">
            <mxPoint x="360" y="710" as="sourcePoint" />
            <mxPoint x="410" y="660" as="targetPoint" />
          </mxGeometry>
        </mxCell>
        <mxCell id="RooowFxhHjXUuwGwddAt-34" value="Services" style="swimlane;fontStyle=1;align=center;verticalAlign=top;childLayout=stackLayout;horizontal=1;startSize=26;horizontalStack=0;resizeParent=1;resizeLast=0;collapsible=1;marginBottom=0;rounded=0;shadow=0;strokeWidth=1;fillColor=#e1d5e7;strokeColor=#9673a6;" parent="WIyWlLk6GJQsqaUBKTNV-1" vertex="1">
          <mxGeometry x="440" y="720" width="202" height="160" as="geometry">
            <mxRectangle x="458" y="410" width="160" height="26" as="alternateBounds" />
          </mxGeometry>
        </mxCell>
        <mxCell id="RooowFxhHjXUuwGwddAt-36" value="&amp;nbsp;" style="text;html=1;align=left;verticalAlign=middle;resizable=0;points=[];autosize=1;strokeColor=none;fillColor=none;" parent="RooowFxhHjXUuwGwddAt-34" vertex="1">
          <mxGeometry y="26" width="202" height="20" as="geometry" />
        </mxCell>
        <mxCell id="RooowFxhHjXUuwGwddAt-37" value="" style="line;html=1;strokeWidth=1;align=left;verticalAlign=middle;spacingTop=-1;spacingLeft=3;spacingRight=3;rotatable=0;labelPosition=right;points=[];portConstraint=eastwest;" parent="RooowFxhHjXUuwGwddAt-34" vertex="1">
          <mxGeometry y="46" width="202" height="16" as="geometry" />
        </mxCell>
        <mxCell id="RooowFxhHjXUuwGwddAt-42" value="&amp;nbsp;findUser (email)" style="text;html=1;align=left;verticalAlign=middle;resizable=0;points=[];autosize=1;strokeColor=none;fillColor=none;fontSize=12;fontFamily=Helvetica;fontColor=default;" parent="RooowFxhHjXUuwGwddAt-34" vertex="1">
          <mxGeometry y="62" width="202" height="20" as="geometry" />
        </mxCell>
        <mxCell id="RooowFxhHjXUuwGwddAt-43" value="&amp;nbsp;getUserPosts (user)" style="text;html=1;align=left;verticalAlign=middle;resizable=0;points=[];autosize=1;strokeColor=none;fillColor=none;fontSize=12;fontFamily=Helvetica;fontColor=default;" parent="RooowFxhHjXUuwGwddAt-34" vertex="1">
          <mxGeometry y="82" width="202" height="20" as="geometry" />
        </mxCell>
        <mxCell id="RooowFxhHjXUuwGwddAt-57" value="&amp;nbsp;likePost (post)" style="text;html=1;align=left;verticalAlign=middle;resizable=0;points=[];autosize=1;strokeColor=none;fillColor=none;fontSize=12;fontFamily=Helvetica;fontColor=default;" parent="RooowFxhHjXUuwGwddAt-34" vertex="1">
          <mxGeometry y="102" width="202" height="20" as="geometry" />
        </mxCell>
        <mxCell id="RooowFxhHjXUuwGwddAt-44" value="&amp;nbsp;filterImage (post)" style="text;html=1;align=left;verticalAlign=middle;resizable=0;points=[];autosize=1;strokeColor=none;fillColor=none;fontSize=12;fontFamily=Helvetica;fontColor=default;" parent="RooowFxhHjXUuwGwddAt-34" vertex="1">
          <mxGeometry y="122" width="202" height="20" as="geometry" />
        </mxCell>
        <mxCell id="RooowFxhHjXUuwGwddAt-48" value="" style="endArrow=none;html=1;rounded=0;fontFamily=Helvetica;fontSize=12;fontColor=default;exitX=0.5;exitY=0;exitDx=0;exitDy=0;entryX=0.5;entryY=1;entryDx=0;entryDy=0;" parent="WIyWlLk6GJQsqaUBKTNV-1" source="RooowFxhHjXUuwGwddAt-34" target="zkfFHV4jXpPFQw0GAbJ--17" edge="1">
          <mxGeometry width="50" height="50" relative="1" as="geometry">
            <mxPoint x="360" y="710" as="sourcePoint" />
            <mxPoint x="420" y="610" as="targetPoint" />
          </mxGeometry>
        </mxCell>
        <mxCell id="RooowFxhHjXUuwGwddAt-52" value="" style="endArrow=classic;html=1;rounded=0;fontFamily=Helvetica;fontSize=12;fontColor=default;entryX=0.5;entryY=1;entryDx=0;entryDy=0;" parent="WIyWlLk6GJQsqaUBKTNV-1" source="RooowFxhHjXUuwGwddAt-1" target="VkD3TOjIiIWvsF4e_gnP-11" edge="1">
          <mxGeometry width="50" height="50" relative="1" as="geometry">
            <mxPoint x="390" y="590" as="sourcePoint" />
            <mxPoint x="440" y="540" as="targetPoint" />
          </mxGeometry>
        </mxCell>
        <mxCell id="RooowFxhHjXUuwGwddAt-54" value="" style="endArrow=none;html=1;rounded=0;fontFamily=Helvetica;fontSize=12;fontColor=default;exitX=0.5;exitY=1;exitDx=0;exitDy=0;" parent="WIyWlLk6GJQsqaUBKTNV-1" source="VkD3TOjIiIWvsF4e_gnP-24" edge="1">
          <mxGeometry width="50" height="50" relative="1" as="geometry">
            <mxPoint x="390" y="590" as="sourcePoint" />
            <mxPoint x="600" y="480" as="targetPoint" />
          </mxGeometry>
        </mxCell>
        <mxCell id="RooowFxhHjXUuwGwddAt-58" value="new data" style="text;html=1;align=center;verticalAlign=middle;resizable=0;points=[];autosize=1;strokeColor=none;fillColor=none;fontSize=12;fontFamily=Helvetica;fontColor=default;" parent="WIyWlLk6GJQsqaUBKTNV-1" vertex="1">
          <mxGeometry x="700" y="370" width="60" height="20" as="geometry" />
        </mxCell>
        <mxCell id="RooowFxhHjXUuwGwddAt-59" value="check" style="text;html=1;align=center;verticalAlign=middle;resizable=0;points=[];autosize=1;strokeColor=none;fillColor=none;fontSize=12;fontFamily=Helvetica;fontColor=default;" parent="WIyWlLk6GJQsqaUBKTNV-1" vertex="1">
          <mxGeometry x="465" y="340" width="50" height="20" as="geometry" />
        </mxCell>
        <mxCell id="RooowFxhHjXUuwGwddAt-60" value="" style="endArrow=classic;startArrow=classic;html=1;rounded=0;fontFamily=Helvetica;fontSize=12;fontColor=default;exitX=1.01;exitY=0.192;exitDx=0;exitDy=0;exitPerimeter=0;" parent="WIyWlLk6GJQsqaUBKTNV-1" source="zkfFHV4jXpPFQw0GAbJ--20" edge="1">
          <mxGeometry width="50" height="50" relative="1" as="geometry">
            <mxPoint x="550" y="533" as="sourcePoint" />
            <mxPoint x="600" y="483" as="targetPoint" />
          </mxGeometry>
        </mxCell>
        <mxCell id="TGGtBXSz6WMK7u7tevUp-0" value="Text" style="text;html=1;align=center;verticalAlign=middle;resizable=0;points=[];autosize=1;strokeColor=none;fillColor=none;" vertex="1" parent="WIyWlLk6GJQsqaUBKTNV-1">
          <mxGeometry x="400" y="850" width="40" height="20" as="geometry" />
        </mxCell>
      </root>
    </mxGraphModel>
  </diagram>
</mxfile>
